<?xml version="1.0" encoding="UTF-8" standalone="no"?>
<!DOCTYPE svg PUBLIC "-//W3C//DTD SVG 1.1//EN" "http://www.w3.org/Graphics/SVG/1.1/DTD/svg11.dtd">
<svg width="100%" height="100%" viewBox="0 0 752 100" version="1.1" xmlns="http://www.w3.org/2000/svg" xmlns:xlink="http://www.w3.org/1999/xlink" xml:space="preserve" xmlns:serif="http://www.serif.com/" style="fill-rule:evenodd;clip-rule:evenodd;stroke-linejoin:round;stroke-miterlimit:2;">
    <g transform="matrix(0.739044,0,-0.160342,0.909344,-90.4469,-1957.98)">
        <path d="M602.692,2200.13C601.746,2198.08 601.273,2195.98 601.273,2193.81C601.273,2186.72 606.69,2180.37 617.524,2174.75C628.358,2169.14 640.63,2166.33 654.339,2166.33C668.758,2166.33 680.114,2169.52 688.407,2175.9C696.7,2182.29 700.846,2191.03 700.846,2202.14C700.846,2216.91 694.405,2229.93 681.522,2241.2C674.707,2247.15 666.188,2252.02 655.965,2255.8C645.741,2259.58 635.961,2261.47 626.625,2261.47C617.642,2261.47 613.151,2258.1 613.151,2251.37C613.151,2248.92 613.919,2243.88 615.456,2236.24L623.138,2197.65C623.808,2194.34 624.143,2191.96 624.143,2190.5C624.143,2189.12 623.67,2187.86 622.724,2186.72C627.964,2184.75 631.608,2183.76 633.657,2183.76C636.099,2183.76 637.32,2185.18 637.32,2188.02C637.32,2188.69 636.69,2192.14 635.429,2198.36L628.988,2230.68C627.373,2238.92 626.565,2244.1 626.565,2246.22C626.565,2248.59 627.363,2250.19 628.959,2251.04C630.554,2251.88 633.558,2252.3 637.971,2252.31C652.271,2252.3 664.245,2247.95 673.893,2239.25C683.541,2230.54 688.369,2219.75 688.377,2206.87C688.369,2196.9 684.861,2188.93 677.853,2182.94C670.844,2176.96 661.509,2173.96 649.848,2173.95C640.354,2173.96 631.5,2176.25 623.286,2180.82C615.072,2185.38 608.207,2191.82 602.692,2200.13Z" style="fill:rgb(132,95,69);fill-rule:nonzero;stroke:rgb(132,95,69);stroke-width:3.03px;"/>
        <path d="M730.984,2185.66C729.644,2186.13 728.502,2186.36 727.556,2186.36C724.562,2186.36 722.888,2183.86 722.533,2178.86L722.238,2174.25C721.608,2165.07 719.973,2159.22 717.333,2156.7C720.367,2155.08 723.597,2154.28 727.025,2154.28C731.397,2154.28 733.584,2155.67 733.584,2158.47C733.584,2159.22 733.229,2161.29 732.52,2164.68L731.752,2168.52C730.334,2175.33 729.625,2179.72 729.625,2181.7C729.625,2183.19 730.078,2184.51 730.984,2185.66Z" style="fill:rgb(132,95,69);fill-rule:nonzero;stroke:rgb(132,95,69);stroke-width:3.03px;"/>
        <path d="M779.854,2199.54C778.83,2197.38 778.318,2195.33 778.318,2193.4C778.318,2186.62 783.804,2180.41 794.775,2174.78C805.747,2169.15 817.792,2166.33 830.911,2166.33C838.239,2166.33 844.158,2167.73 848.669,2170.53C853.18,2173.32 855.435,2176.99 855.435,2181.52C855.435,2189.91 849.466,2197.79 837.53,2205.16C844.503,2207.05 849.969,2209.9 853.928,2213.72C857.887,2217.55 859.867,2221.88 859.867,2226.72C859.867,2236.26 854.686,2244.37 844.325,2251.07C833.964,2257.77 821.417,2261.12 806.683,2261.12C795.849,2261.12 790.432,2257.71 790.432,2250.89C790.432,2249.28 791.023,2245.5 792.205,2239.55L800.537,2197.65C801.207,2194.3 801.542,2191.92 801.542,2190.5C801.542,2189.12 801.069,2187.86 800.123,2186.72C805.324,2184.75 808.968,2183.76 811.056,2183.76C813.498,2183.76 814.719,2185.16 814.719,2187.96C814.719,2188.67 814.069,2192.14 812.769,2198.37L805.028,2237.23C804.161,2241.72 803.728,2244.66 803.728,2246.04C803.728,2251.01 808.456,2253.49 817.91,2253.49C825.671,2253.49 832.319,2251.26 837.855,2246.78C843.39,2242.3 846.157,2236.92 846.157,2230.65C846.157,2225.76 844.621,2221.93 841.548,2219.17C838.475,2216.41 833.354,2214.28 826.184,2212.78C823.623,2213.8 820.826,2214.32 817.792,2214.32C816.768,2214.32 815.488,2214.14 813.951,2213.78C815.094,2209.57 816.522,2206.73 818.235,2205.27C819.949,2203.82 822.717,2203.09 826.538,2203.09C827.523,2203.09 828.843,2203.15 830.497,2203.26C838.889,2197.12 843.084,2191.03 843.084,2185C843.084,2177.87 837.648,2174.31 826.775,2174.31C809.165,2174.31 793.525,2182.72 779.854,2199.54Z" style="fill:rgb(132,95,69);fill-rule:nonzero;stroke:rgb(132,95,69);stroke-width:3.03px;"/>
        <path d="M928.829,2219.57C923.393,2230.8 917.326,2239.92 910.628,2246.93C903.931,2253.95 897.923,2257.45 892.605,2257.45C888.311,2257.45 884.824,2255.94 882.145,2252.91C879.466,2249.88 878.127,2245.94 878.127,2241.1C878.127,2234.88 880.215,2223.46 884.391,2206.85C885.533,2202.36 886.104,2199.53 886.104,2198.35C886.104,2197.17 885.73,2195.89 884.982,2194.51L893.137,2194.45C896.643,2194.45 898.396,2195.81 898.396,2198.52C898.396,2200.21 897.253,2205.07 894.969,2213.09C894.259,2215.48 893.806,2217.13 893.609,2218.04L892.723,2221.64C890.99,2228.83 890.123,2234.31 890.123,2238.09C890.123,2243.91 892.132,2246.82 896.15,2246.82C902.729,2246.82 911.081,2238.68 921.206,2222.4C929.479,2209.15 933.616,2199.72 933.616,2194.1C933.616,2193.31 933.379,2192.52 932.907,2191.74C936.137,2190.83 938.875,2190.38 941.121,2190.38C944.587,2190.38 946.321,2191.44 946.321,2193.57C946.321,2194.08 946.163,2194.82 945.848,2195.81C945.691,2196.4 945.316,2197.83 944.725,2200.11C944.647,2200.54 944.253,2202.14 943.543,2204.89C943.031,2206.81 942.657,2208.35 942.421,2209.49L941.83,2212.32C940.53,2218.8 939.88,2224.88 939.88,2230.53C939.88,2239.18 941.968,2243.51 946.144,2243.51C955.362,2243.51 967.063,2230.53 981.245,2204.59L986.209,2207.54C970.057,2238.61 955.283,2254.14 941.889,2254.14C932.867,2254.14 928.356,2246.32 928.356,2230.68C928.356,2227.72 928.514,2224.02 928.829,2219.57Z" style="fill:rgb(132,95,69);fill-rule:nonzero;stroke:rgb(132,95,69);stroke-width:3.03px;"/>
        <path d="M981.718,2231.37C981.718,2242.89 986.603,2248.65 996.373,2248.65C1004.84,2248.65 1014.18,2244.62 1024.38,2236.56C1034.59,2228.5 1043.79,2217.89 1051.98,2204.72L1057,2207.49C1049.28,2221.9 1039.25,2233.83 1026.89,2243.28C1014.54,2252.73 1002.83,2257.45 991.764,2257.45C984.673,2257.45 979.069,2255.17 974.952,2250.6C970.835,2246.03 968.776,2239.78 968.776,2231.87C968.776,2220.44 972.509,2210.67 979.975,2202.55C987.44,2194.44 996.432,2190.38 1006.95,2190.38C1012.03,2190.38 1016.1,2191.66 1019.15,2194.22C1022.21,2196.78 1023.73,2200.21 1023.73,2204.5C1023.73,2211.55 1019.49,2217.79 1011,2223.22C1002.51,2228.66 992.749,2231.37 981.718,2231.37ZM982.191,2225.7C990.424,2225.27 997.486,2222.91 1003.38,2218.63C1009.26,2214.35 1012.21,2209.39 1012.21,2203.78C1012.21,2198.75 1009.97,2196.23 1005.47,2196.23C1000.12,2196.23 995.172,2199.1 990.641,2204.84C986.111,2210.57 983.294,2217.53 982.191,2225.7Z" style="fill:rgb(132,95,69);fill-rule:nonzero;stroke:rgb(132,95,69);stroke-width:3.03px;"/>
        <path d="M1060.19,2234.76C1074.18,2205.18 1086.75,2190.38 1097.9,2190.38C1106.6,2190.38 1110.96,2199.05 1110.96,2216.38L1111.07,2223.53C1111.07,2231.81 1111.5,2237.53 1112.34,2240.7C1113.19,2243.87 1114.74,2245.46 1116.98,2245.46C1120.37,2245.46 1124.22,2242.76 1128.54,2237.36C1132.85,2231.96 1139.87,2221.11 1149.6,2204.8L1154.57,2207.7C1145.9,2224.05 1138.14,2236.18 1131.28,2244.1C1124.43,2252.02 1118.28,2255.98 1112.85,2255.98C1107.84,2255.98 1104.33,2253.55 1102.3,2248.71C1100.27,2243.86 1099.26,2235.47 1099.26,2223.53L1099.2,2218.45C1099.2,2211.99 1098.78,2207.45 1097.95,2204.83C1097.13,2202.21 1095.69,2200.9 1093.64,2200.9C1088.44,2200.9 1080.07,2211.28 1068.53,2232.04C1065.69,2237.12 1063.86,2240.39 1063.03,2241.85C1060,2247.13 1058.48,2250.95 1058.48,2253.32C1058.48,2254.26 1058.74,2255.17 1059.25,2256.03C1056.96,2256.98 1055.03,2257.45 1053.46,2257.45C1049.48,2257.45 1047.49,2255.25 1047.49,2250.84C1047.49,2249.57 1048,2243.9 1049.03,2233.82L1050.33,2220.99C1050.92,2215.56 1051.21,2211.34 1051.21,2208.35C1051.21,2204.17 1050.27,2200.88 1048.38,2198.48C1049.2,2198.2 1050.58,2197.73 1052.51,2197.06C1054.95,2196.19 1056.9,2195.76 1058.36,2195.76C1061.43,2195.76 1062.97,2198.01 1062.97,2202.5C1062.97,2204.86 1062.68,2208.92 1062.09,2214.67C1061.97,2215.93 1061.85,2217.13 1061.73,2218.27L1060.19,2234.76Z" style="fill:rgb(132,95,69);fill-rule:nonzero;stroke:rgb(132,95,69);stroke-width:3.03px;"/>
        <path d="M1248.59,2231.6C1249.33,2233.37 1249.71,2234.77 1249.71,2235.8C1249.71,2240.93 1245.33,2245.93 1236.56,2250.83C1227.79,2255.72 1218.8,2258.16 1209.58,2258.16C1199.5,2258.16 1191.53,2255.23 1185.68,2249.36C1179.83,2243.49 1176.9,2235.45 1176.9,2225.25C1176.9,2209.13 1182.18,2195.29 1192.74,2183.7C1203.3,2172.12 1215.92,2166.33 1230.62,2166.33C1236.61,2166.33 1241.65,2167.4 1245.75,2169.53C1249.85,2171.66 1251.89,2174.26 1251.89,2177.34C1251.89,2180.11 1250.12,2183.14 1246.58,2186.46C1241.81,2176.95 1235.05,2172.19 1226.31,2172.18C1216.73,2172.19 1208.38,2177.16 1201.26,2187.09C1194.13,2197.01 1190.56,2208.61 1190.56,2221.86C1190.56,2230.32 1192.7,2237.01 1196.97,2241.95C1201.24,2246.88 1207.02,2249.35 1214.31,2249.36C1226.76,2249.35 1238.18,2243.43 1248.59,2231.6Z" style="fill:rgb(132,95,69);fill-rule:nonzero;stroke:rgb(132,95,69);stroke-width:3.03px;"/>
        <path d="M1328.07,2212.42C1328.18,2213.37 1328.24,2214.22 1328.24,2214.97C1328.24,2226.35 1324.38,2236.28 1316.66,2244.75C1308.94,2253.22 1299.9,2257.45 1289.54,2257.45C1281.62,2257.45 1275.17,2254.92 1270.18,2249.86C1265.2,2244.8 1262.71,2238.23 1262.71,2230.15C1262.71,2220.97 1265.93,2213.01 1272.37,2206.28C1278.81,2199.54 1286.4,2196.17 1295.15,2196.17C1296.49,2196.17 1297.91,2196.35 1299.4,2196.7C1298.42,2194.93 1297.93,2193.43 1297.93,2192.21C1297.93,2190.32 1298.58,2188.51 1299.88,2186.78C1309.49,2187.57 1317.49,2192.49 1323.87,2201.55C1330.41,2206 1337.23,2208.23 1344.32,2208.23C1348.92,2208.23 1353.91,2206.67 1359.27,2203.56L1362.22,2208.58C1355.96,2212.96 1349.54,2215.14 1342.96,2215.14C1338.58,2215.14 1333.62,2214.24 1328.07,2212.42ZM1314.65,2207.4C1311.38,2206.42 1308.37,2204.84 1305.61,2202.67C1303.6,2202.25 1301.93,2202.03 1300.59,2202.02C1293.89,2202.03 1287.95,2205.05 1282.78,2211.07C1277.6,2217.09 1275.01,2223.97 1275,2231.69C1275.01,2237.28 1276.57,2241.88 1279.7,2245.48C1282.83,2249.08 1286.86,2250.89 1291.78,2250.89C1298.44,2250.89 1304.17,2247.53 1308.97,2240.81C1313.78,2234.1 1316.18,2226.09 1316.19,2216.8C1316.18,2213.57 1315.67,2210.43 1314.65,2207.4Z" style="fill:rgb(132,95,69);fill-rule:nonzero;stroke:rgb(132,95,69);stroke-width:3.03px;"/>
        <path d="M1365.53,2235.21C1379.71,2205.32 1392.24,2190.38 1403.11,2190.38C1407.88,2190.38 1410.27,2193.82 1410.27,2200.7C1410.27,2203.65 1409.24,2210.3 1407.19,2220.64L1403.65,2238.51C1410.54,2224.02 1417.73,2212.38 1425.21,2203.58C1432.7,2194.78 1439.16,2190.38 1444.6,2190.38C1450.59,2190.38 1453.58,2193.89 1453.58,2200.89C1453.58,2203.41 1452.69,2209.17 1450.92,2218.19L1449.09,2227.39C1447.99,2232.94 1447.43,2237.06 1447.43,2239.73C1447.43,2244.45 1449.11,2246.82 1452.46,2246.82C1460.02,2246.82 1471.64,2232.79 1487.32,2204.74L1492.29,2207.51C1475.19,2240.8 1460.26,2257.45 1447.49,2257.45C1439.34,2257.45 1435.26,2252.14 1435.26,2241.5C1435.26,2237.95 1436.05,2232.26 1437.62,2224.42L1439.28,2216.26C1440.38,2210.75 1440.93,2207.32 1440.93,2205.98C1440.93,2204.29 1440.07,2203.44 1438.33,2203.44C1434.08,2203.44 1426.46,2211.89 1415.46,2228.79C1405.5,2244.19 1400.51,2253 1400.51,2255.2C1400.51,2255.44 1400.59,2255.85 1400.75,2256.44C1400.2,2256.56 1399.23,2256.82 1397.86,2257.22C1397.26,2257.41 1396.38,2257.51 1395.2,2257.51C1391.53,2257.51 1389.7,2255.76 1389.7,2252.26C1389.7,2251.2 1390.29,2247.99 1391.47,2242.64C1391.91,2240.71 1392.34,2238.64 1392.77,2236.44L1395.26,2223.93C1397.07,2214.91 1397.97,2209.5 1397.97,2207.69C1397.97,2205.05 1397.01,2203.74 1395.08,2203.74C1390.82,2203.74 1384.56,2211.35 1376.29,2226.58C1368.05,2241.68 1363.93,2250.7 1363.93,2253.61C1363.93,2254.43 1364.25,2255.24 1364.88,2256.03C1362.71,2256.98 1360.72,2257.45 1358.91,2257.45C1354.82,2257.45 1352.77,2255.25 1352.77,2250.84C1352.77,2250.28 1353.36,2244.55 1354.54,2233.64L1355.9,2221.05C1356.37,2216.64 1356.61,2212.56 1356.61,2208.82C1356.61,2204.09 1355.64,2200.62 1353.71,2198.42C1358.28,2196.76 1361.51,2195.94 1363.4,2195.94C1366.87,2195.94 1368.6,2197.98 1368.6,2202.08C1368.6,2203.53 1368.13,2208.95 1367.18,2218.32L1365.53,2235.21Z" style="fill:rgb(132,95,69);fill-rule:nonzero;stroke:rgb(132,95,69);stroke-width:3.03px;"/>
        <path d="M1487.85,2231.37C1487.85,2242.89 1492.74,2248.65 1502.51,2248.65C1510.98,2248.65 1520.32,2244.62 1530.52,2236.56C1540.72,2228.5 1549.92,2217.89 1558.12,2204.72L1563.14,2207.49C1555.42,2221.9 1545.38,2233.83 1533.03,2243.28C1520.68,2252.73 1508.97,2257.45 1497.9,2257.45C1490.81,2257.45 1485.2,2255.17 1481.09,2250.6C1476.97,2246.03 1474.91,2239.78 1474.91,2231.87C1474.91,2220.44 1478.65,2210.67 1486.11,2202.55C1493.58,2194.44 1502.57,2190.38 1513.09,2190.38C1518.17,2190.38 1522.24,2191.66 1525.29,2194.22C1528.34,2196.78 1529.87,2200.21 1529.87,2204.5C1529.87,2211.55 1525.62,2217.79 1517.13,2223.22C1508.65,2228.66 1498.88,2231.37 1487.85,2231.37ZM1488.33,2225.7C1496.56,2225.27 1503.62,2222.91 1509.51,2218.63C1515.4,2214.35 1518.35,2209.39 1518.35,2203.78C1518.35,2198.75 1516.1,2196.23 1511.61,2196.23C1506.25,2196.23 1501.31,2199.1 1496.78,2204.84C1492.25,2210.57 1489.43,2217.53 1488.33,2225.7Z" style="fill:rgb(132,95,69);fill-rule:nonzero;stroke:rgb(132,95,69);stroke-width:3.03px;"/>
        <path d="M1561.13,2255.56C1558.44,2256.82 1556.28,2257.45 1554.66,2257.45C1550.62,2257.45 1548.6,2255.68 1548.6,2252.14C1548.6,2250.32 1549.31,2245.81 1550.73,2238.6L1553.68,2223.89C1555.5,2215.14 1556.4,2208.66 1556.4,2204.45C1556.4,2202.16 1555.75,2200.25 1554.45,2198.71C1558.59,2197.3 1561.96,2196.59 1564.56,2196.59C1567.32,2196.59 1568.69,2198.34 1568.69,2201.85C1568.69,2204.01 1567.72,2209.71 1565.76,2218.92L1562.42,2236.12C1569.86,2221.66 1577.35,2210.43 1584.88,2202.41C1592.42,2194.39 1599.26,2190.38 1605.4,2190.38C1607.56,2190.38 1609.43,2191 1611.01,2192.24C1612.58,2193.48 1613.37,2194.99 1613.37,2196.76C1613.37,2199.52 1610.38,2203.19 1604.39,2207.76C1602.89,2204.64 1600.77,2203.09 1598.01,2203.09C1593.02,2203.09 1586.64,2208.41 1578.89,2219.04C1574.09,2225.66 1569.92,2232.49 1566.38,2239.52C1562.84,2246.55 1561.07,2251.56 1561.07,2254.56L1561.13,2255.56Z" style="fill:rgb(132,95,69);fill-rule:nonzero;stroke:rgb(132,95,69);stroke-width:3.03px;"/>
    </g>
</svg>
