<?xml version="1.0" encoding="UTF-8" standalone="no"?>
<!DOCTYPE svg PUBLIC "-//W3C//DTD SVG 1.1//EN" "http://www.w3.org/Graphics/SVG/1.1/DTD/svg11.dtd">
<svg width="100%" height="100%" viewBox="0 0 500 501" version="1.1" xmlns="http://www.w3.org/2000/svg" xmlns:xlink="http://www.w3.org/1999/xlink" xml:space="preserve" xmlns:serif="http://www.serif.com/" style="fill-rule:evenodd;clip-rule:evenodd;stroke-linejoin:round;stroke-miterlimit:2;">
    <g transform="matrix(1.17664,0,0,1.17664,-764.001,-2066.12)">
        <path d="M694.086,1858.66C687.047,1849.48 684.715,1853.73 690.026,1861.02C695.939,1869.13 717.349,1903.14 722.438,1911.91C728.333,1922.07 721.861,1926.63 715.608,1917.14C709.816,1908.36 687.651,1872.07 681.987,1863.11C678.755,1857.99 674.475,1860.05 677.687,1865.65C683.078,1875.06 706.303,1911.48 710.806,1921.4C715.441,1931.61 706.683,1933.48 702.336,1925.86C696.917,1916.37 675.427,1879.24 670.094,1869.97C666.299,1863.39 663.037,1866.95 666.18,1872.95C671.048,1882.26 691.975,1918.13 696.318,1927.42C702.659,1940.97 693.152,1941.52 687.235,1930.89C682.083,1921.63 663.382,1885.05 659.074,1875.79C655.906,1868.98 652.435,1871.74 655.4,1878.55C660.99,1891.38 681.675,1936.76 693.664,1952.32C701.589,1962.6 717.452,1963.49 727.335,1971.91C737.603,1980.66 756.061,2019.19 755.764,2023.35C756.386,2014.88 757.352,2007.94 758.83,2003.24C758.83,2003.24 742.273,1978.07 738.661,1966.7C734.987,1955.13 741.516,1939.86 739.284,1931.23C734.41,1912.37 702.911,1870.17 694.086,1858.66Z"/>
    </g>
    <g transform="matrix(1.17664,0,0,1.17664,-764.001,-2066.12)">
        <path d="M829.104,1817.29C827.183,1839.22 824.728,1855.24 815.615,1869.66C802.975,1889.67 800.449,1926.63 803.964,1932.16C803.964,1932.16 814.527,1913.46 820.474,1906.81C838.245,1886.92 873.716,1879.88 873.447,1853.21C873.12,1820.74 819.063,1767.95 819.063,1767.95C821.262,1771.68 830.834,1797.54 829.104,1817.29Z" style="fill:rgb(87,143,80);"/>
    </g>
    <g transform="matrix(-0.140998,-1.16816,1.16816,-0.140998,-1977.84,1614.81)">
        <path d="M803.933,1931.98C816.956,1902.42 840.825,1917.02 867.083,1894.2C894.751,1870.16 887.705,1802.6 889.322,1800.46C890.734,1801.17 878.752,1822.67 869.537,1832.75C835.247,1870.27 822.212,1869.06 809.817,1905.93C807.228,1913.63 803.933,1931.98 803.933,1931.98Z" style="fill:rgb(132,95,69);"/>
    </g>
    <g transform="matrix(1.17664,0,0,1.17664,-764.001,-2066.12)">
        <path d="M803.933,1931.98C816.956,1902.42 840.825,1917.02 867.083,1894.2C894.751,1870.16 887.705,1802.6 889.322,1800.46C890.734,1801.17 878.752,1822.67 869.537,1832.75C835.247,1870.27 822.212,1869.06 809.817,1905.93C807.228,1913.63 803.933,1931.98 803.933,1931.98Z" style="fill:rgb(132,95,69);"/>
    </g>
    <g transform="matrix(1.17664,0,0,1.17664,-764.001,-2066.12)">
        <path d="M785.951,2180.99C797.058,2165.49 811.069,2147.77 799.438,2122.74C781.8,2127.77 783.312,2155 785.951,2180.99Z" style="fill:rgb(132,95,69);"/>
    </g>
    <g transform="matrix(1.17664,0,0,1.17664,-764.001,-2066.12)">
        <path d="M797.583,2101.38C796.554,2101.03 842.279,2173.38 850.765,2171.71C857.148,2170.46 831.734,2117.45 831.734,2117.45C816.742,2112.93 806.148,2108.04 797.583,2101.38Z"/>
    </g>
    <g transform="matrix(1.17664,0,0,1.17664,-764.001,-2066.12)">
        <path d="M785.159,1953.47C785.325,1953.31 785.822,1936.3 782.771,1917.49C774.995,1869.57 759.057,1787.22 756.57,1775.76C752.446,1756.75 749.619,1753.93 744.978,1757.03C733.481,1764.69 727.519,1797.06 729.326,1824.12C731.7,1859.68 746.388,1928.52 765.694,1951.25C767.413,1953.27 769.24,1976.2 769.24,1976.2C774.289,1967.46 778.431,1960.11 785.159,1953.47Z"/>
    </g>
    <g transform="matrix(1.17664,0,0,1.17664,-764.001,-2066.12)">
        <path d="M789.054,2106.09C791.449,2112.03 765.614,2155.81 707.948,2144.09C725.916,2122.34 756.367,2093.53 789.054,2106.09Z" style="fill:rgb(87,143,80);"/>
    </g>
    <g transform="matrix(1.17036,-0.392844,1.04458,3.11203,-2830.41,-5496.92)">
        <ellipse cx="931.724" cy="1985.41" rx="90.636" ry="23.675" style="fill:rgb(132,95,69);"/>
    </g>
    <g transform="matrix(1.17664,0,0,1.17664,-764.001,-2066.12)">
        <path d="M769.842,2042.27C786.058,2087.14 828.019,2109.92 874.256,2112.92C921.905,2116.01 972.114,2101.05 1011.56,2074.48C1049.15,2049.16 1081.71,2006.37 1066.74,1959.22C1052.84,1915.38 1011.58,1894.87 967.721,1891.2C915.376,1886.82 857.86,1902.17 816.158,1934.54C782.571,1960.61 761.849,1999.6 769.842,2042.27ZM802.901,2035.84C816.855,2074.43 852.939,2095.39 892.982,2098.57C934.11,2101.84 977.556,2089.13 1011.56,2066.07C1045.43,2043.1 1072.57,2004.62 1061.42,1962.3C1052.8,1929.57 1017.69,1910.75 986.534,1905.42C934.604,1896.55 875.31,1915.43 835.967,1949.9C811.612,1971.24 793.259,2002.61 802.901,2035.84Z" style="fill:rgb(175,129,96);"/>
    </g>
</svg>
