<?xml version="1.0" encoding="UTF-8" standalone="no"?>
<!DOCTYPE svg PUBLIC "-//W3C//DTD SVG 1.1//EN" "http://www.w3.org/Graphics/SVG/1.1/DTD/svg11.dtd">
<svg width="100%" height="100%" viewBox="0 0 330 40" version="1.1" xmlns="http://www.w3.org/2000/svg" xmlns:xlink="http://www.w3.org/1999/xlink" xml:space="preserve" xmlns:serif="http://www.serif.com/" style="fill-rule:evenodd;clip-rule:evenodd;stroke-linejoin:round;stroke-miterlimit:2;">
    <g transform="matrix(1.80375,0,-0.294448,1.6699,-976.207,-3579.51)">
        <path d="M905.024,2159.44C905.14,2159.78 905.198,2160.05 905.198,2160.24C905.198,2161.22 904.519,2162.18 903.162,2163.11C901.804,2164.04 900.412,2164.51 898.984,2164.51C897.422,2164.51 896.188,2163.95 895.282,2162.83C894.376,2161.71 893.923,2160.18 893.923,2158.23C893.923,2155.16 894.74,2152.52 896.375,2150.32C898.011,2148.11 899.966,2147.01 902.242,2147.01C903.169,2147.01 903.95,2147.21 904.585,2147.62C905.219,2148.02 905.537,2148.52 905.537,2149.1C905.537,2149.63 905.262,2150.21 904.713,2150.84C903.975,2149.03 902.928,2148.12 901.574,2148.12C900.091,2148.12 898.798,2149.07 897.694,2150.96C896.591,2152.85 896.038,2155.06 896.037,2157.59C896.038,2159.2 896.369,2160.48 897.031,2161.41C897.692,2162.36 898.587,2162.83 899.716,2162.83C901.644,2162.83 903.413,2161.7 905.024,2159.44Z" style="fill:rgb(175,129,96);fill-rule:nonzero;stroke:rgb(175,129,96);stroke-width:0.63px;"/>
        <path d="M917.334,2155.79C917.352,2155.97 917.361,2156.13 917.361,2156.27C917.361,2158.44 916.763,2160.34 915.568,2161.95C914.372,2163.56 912.971,2164.37 911.367,2164.37C910.14,2164.37 909.141,2163.89 908.369,2162.92C907.598,2161.96 907.212,2160.71 907.212,2159.17C907.212,2157.42 907.71,2155.9 908.708,2154.62C909.706,2153.34 910.882,2152.69 912.236,2152.69C912.444,2152.69 912.663,2152.73 912.895,2152.79C912.743,2152.46 912.666,2152.17 912.666,2151.94C912.666,2151.58 912.767,2151.23 912.968,2150.9C914.457,2151.05 915.696,2151.99 916.684,2153.72C917.697,2154.57 918.752,2154.99 919.851,2154.99C920.565,2154.99 921.336,2154.69 922.166,2154.1L922.624,2155.06C921.654,2155.89 920.659,2156.31 919.64,2156.31C918.963,2156.31 918.194,2156.14 917.334,2155.79ZM915.256,2154.83C914.75,2154.64 914.283,2154.34 913.856,2153.93C913.545,2153.85 913.286,2153.81 913.078,2153.81C912.041,2153.81 911.121,2154.38 910.319,2155.53C909.518,2156.68 909.116,2157.99 909.115,2159.46C909.116,2160.53 909.359,2161.4 909.844,2162.09C910.328,2162.78 910.952,2163.12 911.714,2163.12C912.746,2163.12 913.633,2162.48 914.377,2161.2C915.121,2159.92 915.493,2158.39 915.494,2156.62C915.493,2156.01 915.414,2155.41 915.256,2154.83Z" style="fill:rgb(175,129,96);fill-rule:nonzero;stroke:rgb(175,129,96);stroke-width:0.63px;"/>
        <path d="M923.136,2160.13C925.333,2154.44 927.273,2151.59 928.957,2151.59C929.695,2151.59 930.065,2152.24 930.065,2153.56C930.065,2154.12 929.906,2155.38 929.589,2157.36L929.04,2160.76C930.107,2158 931.221,2155.78 932.38,2154.1C933.539,2152.43 934.54,2151.59 935.382,2151.59C936.309,2151.59 936.773,2152.26 936.773,2153.59C936.773,2154.07 936.636,2155.17 936.361,2156.89L936.078,2158.64C935.907,2159.7 935.821,2160.48 935.821,2160.99C935.821,2161.89 936.081,2162.34 936.599,2162.34C937.771,2162.34 939.571,2159.67 941.999,2154.32L942.768,2154.85C940.12,2161.2 937.807,2164.37 935.83,2164.37C934.567,2164.37 933.936,2163.36 933.936,2161.33C933.936,2160.65 934.058,2159.57 934.302,2158.08L934.558,2156.52C934.729,2155.47 934.815,2154.82 934.815,2154.56C934.815,2154.24 934.68,2154.08 934.412,2154.08C933.753,2154.08 932.572,2155.69 930.87,2158.91C929.326,2161.84 928.554,2163.52 928.554,2163.94C928.554,2163.99 928.567,2164.07 928.591,2164.18C928.506,2164.2 928.356,2164.25 928.143,2164.32C928.051,2164.36 927.914,2164.38 927.731,2164.38C927.163,2164.38 926.88,2164.05 926.88,2163.38C926.88,2163.18 926.971,2162.57 927.154,2161.55C927.221,2161.18 927.288,2160.79 927.356,2160.37L927.74,2157.98C928.021,2156.26 928.161,2155.23 928.161,2154.89C928.161,2154.39 928.011,2154.13 927.712,2154.13C927.054,2154.13 926.083,2155.59 924.802,2158.49C923.527,2161.37 922.889,2163.08 922.889,2163.64C922.889,2163.8 922.938,2163.95 923.036,2164.1C922.7,2164.28 922.392,2164.37 922.111,2164.37C921.477,2164.37 921.16,2163.95 921.16,2163.11C921.16,2163 921.251,2161.91 921.434,2159.83L921.645,2157.43C921.718,2156.59 921.754,2155.82 921.754,2155.1C921.754,2154.2 921.605,2153.54 921.306,2153.12C922.014,2152.8 922.514,2152.65 922.807,2152.65C923.344,2152.65 923.612,2153.04 923.612,2153.82C923.612,2154.1 923.539,2155.13 923.393,2156.91L923.136,2160.13Z" style="fill:rgb(175,129,96);fill-rule:nonzero;stroke:rgb(175,129,96);stroke-width:0.63px;"/>
        <path d="M951.087,2154.87C949.708,2157.85 948.314,2160.17 946.905,2161.85C945.495,2163.53 944.229,2164.37 943.106,2164.37C942.423,2164.37 941.872,2164.1 941.454,2163.55C941.037,2163 940.828,2162.28 940.828,2161.39C940.828,2161.05 940.889,2160.51 941.011,2159.78L941.212,2158.54C941.511,2156.75 941.66,2155.49 941.66,2154.77C941.66,2154.35 941.557,2154 941.349,2153.73C942.142,2153.5 942.64,2153.39 942.841,2153.39C943.293,2153.39 943.518,2153.78 943.518,2154.56C943.518,2155.14 943.43,2155.97 943.253,2157.05L942.896,2159.24C942.719,2160.3 942.631,2160.98 942.631,2161.3C942.631,2162.23 942.951,2162.69 943.592,2162.69C944.354,2162.69 945.37,2161.9 946.639,2160.32C947.908,2158.75 949.138,2156.74 950.328,2154.32L951.087,2154.87ZM942.942,2149.2L943.07,2149.22C943.479,2149.19 944.066,2148.94 944.832,2148.45C945.597,2147.97 946.197,2147.47 946.63,2146.97C946.362,2148.01 945.886,2148.88 945.202,2149.57C944.165,2150.64 943.463,2151.17 943.097,2151.17C942.853,2151.17 942.731,2150.99 942.731,2150.62C942.731,2150.1 942.801,2149.62 942.942,2149.2Z" style="fill:rgb(175,129,96);fill-rule:nonzero;stroke:rgb(175,129,96);stroke-width:0.63px;"/>
        <path d="M956.286,2157.5C955.334,2159.61 954.338,2161.28 953.297,2162.52C952.257,2163.75 951.328,2164.37 950.511,2164.37C949.858,2164.37 949.339,2164.02 948.955,2163.32C948.57,2162.62 948.378,2161.68 948.378,2160.5C948.378,2158.12 948.952,2156.05 950.099,2154.26C951.246,2152.48 952.579,2151.59 954.098,2151.59C955.007,2151.59 955.999,2151.95 957.073,2152.66L958.052,2146.6C957.515,2146.74 957.07,2146.8 956.716,2146.8C956.179,2146.8 955.785,2146.65 955.535,2146.33C955.285,2146.02 955.084,2145.43 954.931,2144.57C955.37,2144.94 956.045,2145.12 956.954,2145.12C958.082,2145.12 959.172,2144.87 960.221,2144.36L958.226,2156.7C958,2158.08 957.887,2159.26 957.887,2160.23C957.887,2161.52 958.186,2162.16 958.784,2162.16C959.37,2162.16 960.345,2161.32 961.708,2159.63C963.072,2157.94 964.208,2156.17 965.117,2154.33L965.868,2154.91C964.782,2157.36 963.426,2159.55 961.8,2161.48C960.174,2163.41 958.876,2164.37 957.906,2164.37C956.673,2164.37 956.057,2163.15 956.057,2160.72C956.057,2159.72 956.133,2158.64 956.286,2157.5ZM956.771,2154.52C955.502,2153.49 954.446,2152.97 953.604,2152.97C952.689,2152.97 951.897,2153.66 951.229,2155.05C950.561,2156.43 950.227,2158.06 950.227,2159.95C950.227,2161.46 950.63,2162.22 951.435,2162.22C952.301,2162.22 953.967,2159.86 956.432,2155.15C956.475,2155.07 956.588,2154.86 956.771,2154.52Z" style="fill:rgb(175,129,96);fill-rule:nonzero;stroke:rgb(175,129,96);stroke-width:0.63px;"/>
        <path d="M971.176,2157.21C970.394,2159.2 969.431,2160.89 968.285,2162.28C967.14,2163.67 966.143,2164.37 965.294,2164.37C964.646,2164.37 964.129,2164.02 963.741,2163.31C963.353,2162.6 963.159,2161.65 963.159,2160.47C963.159,2158.12 963.738,2156.06 964.895,2154.27C966.052,2152.48 967.392,2151.59 968.912,2151.59C969.835,2151.59 970.833,2151.94 971.908,2152.65C972.067,2151.95 972.714,2151.6 973.849,2151.6C973.922,2151.6 974.041,2151.6 974.206,2151.61C973.858,2152.26 973.592,2153.16 973.409,2154.29L973.254,2155.25C973.077,2156.32 972.988,2157.56 972.988,2158.99C972.988,2160.63 973.299,2161.45 973.922,2161.45C974.581,2161.45 975.482,2160.78 976.626,2159.42C977.77,2158.07 978.894,2156.34 979.999,2154.25L980.713,2154.86C979.584,2157.33 978.294,2159.4 976.841,2161.05C975.389,2162.71 974.141,2163.54 973.098,2163.54C971.78,2163.54 971.121,2162.19 971.121,2159.48C971.121,2158.92 971.14,2158.16 971.176,2157.21ZM971.606,2154.52C970.323,2153.49 969.257,2152.97 968.408,2152.97C967.485,2152.97 966.688,2153.66 966.016,2155.04C965.344,2156.42 965.008,2158.05 965.008,2159.95C965.008,2161.46 965.411,2162.22 966.217,2162.22C967.091,2162.22 968.762,2159.86 971.231,2155.15C971.261,2155.09 971.386,2154.88 971.606,2154.52Z" style="fill:rgb(175,129,96);fill-rule:nonzero;stroke:rgb(175,129,96);stroke-width:0.63px;"/>
        <path d="M983.605,2160.12C983.812,2160.7 983.916,2161.24 983.916,2161.76C983.916,2162.91 983.525,2163.91 982.745,2164.76C981.964,2165.61 981.048,2166.04 979.999,2166.04C979.383,2166.04 978.858,2165.84 978.425,2165.45C977.991,2165.06 977.775,2164.59 977.775,2164.04C977.775,2163.46 978.072,2162.87 978.667,2162.26C979.262,2161.66 980.258,2160.95 981.655,2160.12L980.923,2158.67C980.032,2156.91 979.587,2155.53 979.587,2154.54C979.587,2153.11 980.261,2151.96 981.61,2151.09C982.439,2151.48 982.854,2151.98 982.854,2152.57C982.854,2153.41 982.327,2154.22 981.271,2154.99L982.314,2157.36L983.129,2159.18C984.294,2158.32 985.173,2157.59 985.765,2156.98C986.357,2156.37 987.104,2155.42 988.007,2154.14L988.739,2154.7C987.427,2156.86 985.716,2158.67 983.605,2160.12ZM982.049,2161.14C980.255,2162.32 979.358,2163.24 979.358,2163.9C979.358,2164.51 979.721,2164.82 980.447,2164.82C980.984,2164.82 981.42,2164.6 981.756,2164.15C982.092,2163.7 982.259,2163.13 982.259,2162.42C982.259,2162 982.189,2161.57 982.049,2161.14Z" style="fill:rgb(175,129,96);fill-rule:nonzero;stroke:rgb(175,129,96);stroke-width:0.63px;"/>
        <path d="M1003.3,2159.44C1003.42,2159.78 1003.47,2160.05 1003.47,2160.24C1003.47,2161.22 1002.8,2162.18 1001.44,2163.11C1000.08,2164.04 998.688,2164.51 997.26,2164.51C995.698,2164.51 994.464,2163.95 993.558,2162.83C992.652,2161.71 992.199,2160.18 992.199,2158.23C992.199,2155.16 993.016,2152.52 994.651,2150.32C996.287,2148.11 998.242,2147.01 1000.52,2147.01C1001.45,2147.01 1002.23,2147.21 1002.86,2147.62C1003.5,2148.02 1003.81,2148.52 1003.81,2149.1C1003.81,2149.63 1003.54,2150.21 1002.99,2150.84C1002.25,2149.03 1001.2,2148.12 999.85,2148.12C998.367,2148.12 997.074,2149.07 995.97,2150.96C994.867,2152.85 994.314,2155.06 994.313,2157.59C994.314,2159.2 994.645,2160.48 995.307,2161.41C995.968,2162.36 996.863,2162.83 997.992,2162.83C999.92,2162.83 1001.69,2161.7 1003.3,2159.44Z" style="fill:rgb(175,129,96);fill-rule:nonzero;stroke:rgb(175,129,96);stroke-width:0.63px;"/>
        <path d="M1013.65,2157.21C1012.87,2159.2 1011.91,2160.89 1010.76,2162.28C1009.62,2163.67 1008.62,2164.37 1007.77,2164.37C1007.12,2164.37 1006.6,2164.02 1006.22,2163.31C1005.83,2162.6 1005.63,2161.65 1005.63,2160.47C1005.63,2158.12 1006.21,2156.06 1007.37,2154.27C1008.53,2152.48 1009.87,2151.59 1011.39,2151.59C1012.31,2151.59 1013.31,2151.94 1014.38,2152.65C1014.54,2151.95 1015.19,2151.6 1016.32,2151.6C1016.4,2151.6 1016.52,2151.6 1016.68,2151.61C1016.33,2152.26 1016.07,2153.16 1015.88,2154.29L1015.73,2155.25C1015.55,2156.32 1015.46,2157.56 1015.46,2158.99C1015.46,2160.63 1015.77,2161.45 1016.4,2161.45C1017.06,2161.45 1017.96,2160.78 1019.1,2159.42C1020.25,2158.07 1021.37,2156.34 1022.47,2154.25L1023.19,2154.86C1022.06,2157.33 1020.77,2159.4 1019.32,2161.05C1017.86,2162.71 1016.62,2163.54 1015.57,2163.54C1014.25,2163.54 1013.6,2162.19 1013.6,2159.48C1013.6,2158.92 1013.62,2158.16 1013.65,2157.21ZM1014.08,2154.52C1012.8,2153.49 1011.73,2152.97 1010.88,2152.97C1009.96,2152.97 1009.16,2153.66 1008.49,2155.04C1007.82,2156.42 1007.48,2158.05 1007.48,2159.95C1007.48,2161.46 1007.89,2162.22 1008.69,2162.22C1009.57,2162.22 1011.24,2159.86 1013.71,2155.15C1013.74,2155.09 1013.86,2154.88 1014.08,2154.52Z" style="fill:rgb(175,129,96);fill-rule:nonzero;stroke:rgb(175,129,96);stroke-width:0.63px;"/>
        <path d="M1026.08,2160.12C1026.29,2160.7 1026.39,2161.24 1026.39,2161.76C1026.39,2162.91 1026,2163.91 1025.22,2164.76C1024.44,2165.61 1023.52,2166.04 1022.47,2166.04C1021.86,2166.04 1021.33,2165.84 1020.9,2165.45C1020.47,2165.06 1020.25,2164.59 1020.25,2164.04C1020.25,2163.46 1020.55,2162.87 1021.14,2162.26C1021.74,2161.66 1022.73,2160.95 1024.13,2160.12L1023.4,2158.67C1022.51,2156.91 1022.06,2155.53 1022.06,2154.54C1022.06,2153.11 1022.74,2151.96 1024.09,2151.09C1024.91,2151.48 1025.33,2151.98 1025.33,2152.57C1025.33,2153.41 1024.8,2154.22 1023.75,2154.99L1024.79,2157.36L1025.6,2159.18C1026.77,2158.32 1027.65,2157.59 1028.24,2156.98C1028.83,2156.37 1029.58,2155.42 1030.48,2154.14L1031.21,2154.7C1029.9,2156.86 1028.19,2158.67 1026.08,2160.12ZM1024.52,2161.14C1022.73,2162.32 1021.83,2163.24 1021.83,2163.9C1021.83,2164.51 1022.2,2164.82 1022.92,2164.82C1023.46,2164.82 1023.9,2164.6 1024.23,2164.15C1024.57,2163.7 1024.74,2163.13 1024.74,2162.42C1024.74,2162 1024.66,2161.57 1024.52,2161.14Z" style="fill:rgb(175,129,96);fill-rule:nonzero;stroke:rgb(175,129,96);stroke-width:0.63px;"/>
        <path d="M1030.53,2159.4C1030.53,2161.6 1031.29,2162.69 1032.8,2162.69C1034.11,2162.69 1035.56,2161.93 1037.14,2160.39C1038.72,2158.85 1040.14,2156.83 1041.41,2154.32L1042.19,2154.85C1040.99,2157.6 1039.44,2159.87 1037.53,2161.67C1035.61,2163.47 1033.8,2164.37 1032.08,2164.37C1030.99,2164.37 1030.12,2163.93 1029.48,2163.06C1028.84,2162.19 1028.52,2161 1028.52,2159.49C1028.52,2157.32 1029.1,2155.45 1030.26,2153.91C1031.41,2152.36 1032.81,2151.59 1034.44,2151.59C1035.22,2151.59 1035.85,2151.83 1036.33,2152.32C1036.8,2152.81 1037.04,2153.46 1037.04,2154.28C1037.04,2155.62 1036.38,2156.81 1035.06,2157.85C1033.75,2158.88 1032.24,2159.4 1030.53,2159.4ZM1030.6,2158.32C1031.88,2158.24 1032.97,2157.79 1033.88,2156.97C1034.79,2156.16 1035.25,2155.21 1035.25,2154.14C1035.25,2153.18 1034.9,2152.7 1034.21,2152.7C1033.38,2152.7 1032.61,2153.25 1031.91,2154.34C1031.21,2155.44 1030.77,2156.76 1030.6,2158.32Z" style="fill:rgb(175,129,96);fill-rule:nonzero;stroke:rgb(175,129,96);stroke-width:0.63px;"/>
        <path d="M1041.88,2164.01C1041.46,2164.25 1041.13,2164.37 1040.87,2164.37C1040.25,2164.37 1039.94,2164.03 1039.94,2163.36C1039.94,2163.01 1040.05,2162.15 1040.27,2160.78L1040.72,2157.97C1041,2156.31 1041.14,2155.07 1041.14,2154.27C1041.14,2153.83 1041.04,2153.47 1040.84,2153.18C1041.48,2152.91 1042.01,2152.77 1042.41,2152.77C1042.84,2152.77 1043.05,2153.11 1043.05,2153.77C1043.05,2154.19 1042.9,2155.27 1042.59,2157.03L1042.08,2160.3C1043.23,2157.55 1044.39,2155.41 1045.56,2153.88C1046.72,2152.35 1047.78,2151.59 1048.73,2151.59C1049.07,2151.59 1049.36,2151.71 1049.6,2151.94C1049.85,2152.18 1049.97,2152.47 1049.97,2152.8C1049.97,2153.33 1049.5,2154.03 1048.58,2154.9C1048.35,2154.31 1048.02,2154.01 1047.59,2154.01C1046.82,2154.01 1045.83,2155.02 1044.63,2157.05C1043.88,2158.31 1043.24,2159.61 1042.69,2160.95C1042.14,2162.29 1041.87,2163.25 1041.87,2163.82L1041.88,2164.01Z" style="fill:rgb(175,129,96);fill-rule:nonzero;stroke:rgb(175,129,96);stroke-width:0.63px;"/>
        <path d="M1057.64,2157.21C1056.86,2159.2 1055.89,2160.89 1054.75,2162.28C1053.6,2163.67 1052.6,2164.37 1051.75,2164.37C1051.11,2164.37 1050.59,2164.02 1050.2,2163.31C1049.81,2162.6 1049.62,2161.65 1049.62,2160.47C1049.62,2158.12 1050.2,2156.06 1051.36,2154.27C1052.51,2152.48 1053.85,2151.59 1055.37,2151.59C1056.3,2151.59 1057.29,2151.94 1058.37,2152.65C1058.53,2151.95 1059.17,2151.6 1060.31,2151.6C1060.38,2151.6 1060.5,2151.6 1060.67,2151.61C1060.32,2152.26 1060.05,2153.16 1059.87,2154.29L1059.71,2155.25C1059.54,2156.32 1059.45,2157.56 1059.45,2158.99C1059.45,2160.63 1059.76,2161.45 1060.38,2161.45C1061.04,2161.45 1061.94,2160.78 1063.09,2159.42C1064.23,2158.07 1065.36,2156.34 1066.46,2154.25L1067.17,2154.86C1066.05,2157.33 1064.75,2159.4 1063.3,2161.05C1061.85,2162.71 1060.6,2163.54 1059.56,2163.54C1058.24,2163.54 1057.58,2162.19 1057.58,2159.48C1057.58,2158.92 1057.6,2158.16 1057.64,2157.21ZM1058.07,2154.52C1056.78,2153.49 1055.72,2152.97 1054.87,2152.97C1053.95,2152.97 1053.15,2153.66 1052.48,2155.04C1051.8,2156.42 1051.47,2158.05 1051.47,2159.95C1051.47,2161.46 1051.87,2162.22 1052.68,2162.22C1053.55,2162.22 1055.22,2159.86 1057.69,2155.15C1057.72,2155.09 1057.85,2154.88 1058.07,2154.52Z" style="fill:rgb(175,129,96);fill-rule:nonzero;stroke:rgb(175,129,96);stroke-width:0.63px;"/>
        <path d="M1070.07,2160.12C1070.27,2160.7 1070.38,2161.24 1070.38,2161.76C1070.38,2162.91 1069.99,2163.91 1069.2,2164.76C1068.42,2165.61 1067.51,2166.04 1066.46,2166.04C1065.84,2166.04 1065.32,2165.84 1064.88,2165.45C1064.45,2165.06 1064.24,2164.59 1064.24,2164.04C1064.24,2163.46 1064.53,2162.87 1065.13,2162.26C1065.72,2161.66 1066.72,2160.95 1068.12,2160.12L1067.38,2158.67C1066.49,2156.91 1066.05,2155.53 1066.05,2154.54C1066.05,2153.11 1066.72,2151.96 1068.07,2151.09C1068.9,2151.48 1069.32,2151.98 1069.32,2152.57C1069.32,2153.41 1068.79,2154.22 1067.73,2154.99L1068.78,2157.36L1069.59,2159.18C1070.76,2158.32 1071.63,2157.59 1072.22,2156.98C1072.82,2156.37 1073.57,2155.42 1074.47,2154.14L1075.2,2154.7C1073.89,2156.86 1072.18,2158.67 1070.07,2160.12ZM1068.51,2161.14C1066.72,2162.32 1065.82,2163.24 1065.82,2163.9C1065.82,2164.51 1066.18,2164.82 1066.91,2164.82C1067.44,2164.82 1067.88,2164.6 1068.22,2164.15C1068.55,2163.7 1068.72,2163.13 1068.72,2162.42C1068.72,2162 1068.65,2161.57 1068.51,2161.14Z" style="fill:rgb(175,129,96);fill-rule:nonzero;stroke:rgb(175,129,96);stroke-width:0.63px;"/>
    </g>
</svg>
